<svg width="12" height="18" viewBox="0 0 12 18" fill="none" xmlns="http://www.w3.org/2000/svg">
<path d="M11.8333 6.49996C11.8333 5.6159 11.4821 4.76806 10.857 4.14294C10.2319 3.51782 9.38401 3.16663 8.49996 3.16663V1.49996C8.49996 1.27895 8.41216 1.06698 8.25588 0.910704C8.0996 0.754423 7.88764 0.666626 7.66663 0.666626C7.44561 0.666626 7.23365 0.754423 7.07737 0.910704C6.92109 1.06698 6.83329 1.27895 6.83329 1.49996V3.16663H5.16663V1.49996C5.16663 1.27895 5.07883 1.06698 4.92255 0.910704C4.76627 0.754423 4.55431 0.666626 4.33329 0.666626C4.11228 0.666626 3.90032 0.754423 3.74404 0.910704C3.58776 1.06698 3.49996 1.27895 3.49996 1.49996V3.16663H0.999959C0.778946 3.16663 0.566984 3.25442 0.410704 3.4107C0.254424 3.56698 0.166626 3.77895 0.166626 3.99996C0.166626 4.22097 0.254424 4.43293 0.410704 4.58921C0.566984 4.7455 0.778946 4.83329 0.999959 4.83329H1.83329V13.1666H0.999959C0.778946 13.1666 0.566984 13.2544 0.410704 13.4107C0.254424 13.567 0.166626 13.7789 0.166626 14C0.166626 14.221 0.254424 14.4329 0.410704 14.5892C0.566984 14.7455 0.778946 14.8333 0.999959 14.8333H3.49996V16.5C3.49996 16.721 3.58776 16.9329 3.74404 17.0892C3.90032 17.2455 4.11228 17.3333 4.33329 17.3333C4.55431 17.3333 4.76627 17.2455 4.92255 17.0892C5.07883 16.9329 5.16663 16.721 5.16663 16.5V14.8333H6.83329V16.5C6.83329 16.721 6.92109 16.9329 7.07737 17.0892C7.23365 17.2455 7.44561 17.3333 7.66663 17.3333C7.88764 17.3333 8.0996 17.2455 8.25588 17.0892C8.41216 16.9329 8.49996 16.721 8.49996 16.5V14.8333C9.1752 14.829 9.83321 14.6197 10.3869 14.2331C10.9405 13.8465 11.3637 13.3009 11.6004 12.6685C11.8371 12.0361 11.8762 11.3467 11.7124 10.6916C11.5486 10.0365 11.1897 9.44658 10.6833 8.99996C11.0419 8.68913 11.33 8.30531 11.5283 7.87417C11.7266 7.44303 11.8306 6.97452 11.8333 6.49996V6.49996ZM8.49996 13.1666H3.49996V9.83329H8.49996C8.94199 9.83329 9.36591 10.0089 9.67847 10.3214C9.99103 10.634 10.1666 11.0579 10.1666 11.5C10.1666 11.942 9.99103 12.3659 9.67847 12.6785C9.36591 12.991 8.94199 13.1666 8.49996 13.1666ZM8.49996 8.16663H3.49996V4.83329H8.49996C8.94199 4.83329 9.36591 5.00889 9.67847 5.32145C9.99103 5.63401 10.1666 6.05793 10.1666 6.49996C10.1666 6.94199 9.99103 7.36591 9.67847 7.67847C9.36591 7.99103 8.94199 8.16663 8.49996 8.16663Z" fill="white"/>
</svg>
