<svg width="20" height="20" viewBox="0 0 20 20" fill="none" xmlns="http://www.w3.org/2000/svg">
<path fill-rule="evenodd" clip-rule="evenodd" d="M10.3264 0.209602C10.4861 0.0662612 10.6973 -0.00887421 10.9135 0.000763864C15.4843 0.137594 19.3044 3.45574 19.9967 7.89057C20.0011 7.91705 20.0011 7.94405 19.9967 7.97053C20.0116 8.18037 19.9407 8.38738 19.7996 8.54579C19.6586 8.70419 19.459 8.80093 19.2451 8.8146L11.5656 9.32104C11.3116 9.34356 11.0597 9.25999 10.8718 9.09086C10.6839 8.92173 10.5774 8.68272 10.5785 8.43255L10.0623 0.889255V0.764867C10.0717 0.552715 10.1667 0.352942 10.3264 0.209602ZM9.79965 11.2935L16.4558 10.867L16.5011 10.8848C16.7869 10.8895 17.0591 11.0054 17.2579 11.207C17.4566 11.4086 17.5655 11.6794 17.5606 11.9599C17.2984 15.782 14.4962 18.9754 10.6828 19.7982C6.86938 20.6209 2.96017 18.8754 1.08778 15.5138C0.537217 14.5456 0.189303 13.4793 0.064454 12.3774C0.0160313 12.0509 -0.0051696 11.7211 0.00106199 11.3912C0.0136824 7.327 2.90728 3.819 6.95607 2.95944C7.4462 2.8677 7.93762 3.11242 8.15146 3.55473C8.20469 3.63499 8.2473 3.72157 8.27824 3.81239C8.35414 4.98399 8.43287 6.14449 8.51126 7.30009C8.57318 8.21271 8.63488 9.12227 8.69482 10.0318C8.69173 10.2461 8.7254 10.4594 8.79444 10.6627C8.95695 11.0627 9.36136 11.3165 9.79965 11.2935Z" fill="#EAB96B"/>
</svg>
