<svg width="24" height="25" viewBox="0 0 24 25" fill="none" xmlns="http://www.w3.org/2000/svg">
<path fill-rule="evenodd" clip-rule="evenodd" d="M3.50083 14.2871V14.0681C3.53295 13.4202 3.7406 12.7925 4.10236 12.2496C4.7045 11.5975 5.1167 10.7983 5.29571 9.93598C5.29571 9.2695 5.29571 8.5935 5.35393 7.92703C5.65469 4.71842 8.82728 2.5 11.9611 2.5H12.0387C15.1725 2.5 18.345 4.71842 18.6555 7.92703C18.7137 8.5935 18.6555 9.2695 18.704 9.93598C18.8854 10.8003 19.2972 11.6019 19.8974 12.2591C20.2618 12.7972 20.4698 13.4227 20.4989 14.0681V14.2776C20.5206 15.148 20.2208 15.9968 19.6548 16.6674C18.907 17.4515 17.8921 17.9393 16.8024 18.0384C13.607 18.3812 10.383 18.3812 7.18762 18.0384C6.09914 17.935 5.08576 17.4479 4.33521 16.6674C3.778 15.9963 3.48224 15.1526 3.50083 14.2871Z" stroke="white" stroke-width="1.5" stroke-linecap="round" stroke-linejoin="round"/>
<path d="M9.55493 21.3518C10.0542 21.9785 10.7874 22.384 11.5922 22.4788C12.3971 22.5735 13.2072 22.3495 13.8433 21.8564C14.0389 21.7106 14.2149 21.541 14.3672 21.3518" stroke="white" stroke-width="1.5" stroke-linecap="round" stroke-linejoin="round"/>
</svg>
