<svg width="16" height="16" viewBox="0 0 16 16" fill="none" xmlns="http://www.w3.org/2000/svg">
<g clip-path="url(#clip0_229_1743)">
<path d="M11.0827 9.28005L12.894 11.0907L7.992 15.9927L3.09067 11.0914L4.902 9.28005L7.99267 12.3867L11.0827 9.28005V9.28005ZM14.174 6.18938L16 8.00005L14.19 9.81071L12.3787 8.00005L14.174 6.18938V6.18938ZM7.99267 6.18938L9.80333 7.98405L7.992 9.79538L6.18133 8.00005L7.992 6.19005L7.99267 6.18938ZM1.81067 6.18938L3.60667 8.00005L1.812 9.79471L0 8.00005L1.81067 6.18938V6.18938ZM7.99333 0.00671387L12.8947 4.89338L11.0833 6.70338L7.99267 3.61271L4.90267 6.71938L3.09133 4.90871L7.99267 0.00738053L7.99333 0.00671387Z" fill="white"/>
</g>
<defs>
<clipPath id="clip0_229_1743">
<rect width="16" height="16" fill="white"/>
</clipPath>
</defs>
</svg>
